<?xml version="1.0" encoding="UTF-8"?>
<svg width="376px" height="301px" viewBox="0 0 376 301" version="1.1" xmlns="http://www.w3.org/2000/svg" xmlns:xlink="http://www.w3.org/1999/xlink">
    <!-- Generator: Sketch 50.2 (55047) - http://www.bohemiancoding.com/sketch -->
    <title>no address</title>
    <desc>Created with Sketch.</desc>
    <defs></defs>
    <g id="noon" stroke="none" stroke-width="1" fill="none" fill-rule="evenodd">
        <g id="1440px---Empty---no-address" transform="translate(-532.000000, -257.000000)">
            <g id="no-address" transform="translate(534.000000, 257.000000)">
                <g id="Layer_7">
                    <path d="M338.75597,239.14463 C334.591791,230.873681 326.318955,226.741667 318.025299,226.741667 C314.971567,206.669907 297.294627,201.928819 280.707313,210.199769 C280.707313,201.928819 272.413657,197.796806 264.12,201.928819 C264.12,189.525856 255.534851,180.860394 243.389328,181.254907 C243.389328,177.10213 243.389328,172.983958 235.095672,168.851944 C229.217239,162.622778 218.508358,164.699167 214.365,168.851944 C207.681493,165.51588 200.997985,167.557662 198.659104,172.810926 C194.870281,169.349535 189.034069,169.428391 185.340672,172.99088 C185.30597,164.726852 177.040075,160.574074 168.746418,164.726852 C160.452761,156.455903 139.72209,160.574074 139.72209,177.129815 C127.569627,176.735301 118.991418,185.400764 118.991418,197.803727 C110.697761,193.650949 102.404104,197.803727 102.404104,206.074676 C85.816791,197.803727 68.1329104,202.544815 65.0861194,222.616574 C56.7924627,222.616574 48.498806,226.769352 44.3554478,235.019537 C38.803209,233.635278 31.9184328,239.172315 27.7681343,243.290486 L355.343284,243.290486 C351.179104,239.14463 344.287388,237.767292 338.75597,239.14463 Z" id="Shape" fill="#F4F6F8" fill-rule="nonzero"></path>
                    <polyline id="Shape" stroke="#C6CBDB" stroke-width="2.772" stroke-linecap="round" stroke-linejoin="round" points="269.665299 243.207431 303.742164 243.207431 355.343284 243.62963"></polyline>
                    <path d="M27.761194,243.165903 L179.344254,243.165903" id="Shape" stroke="#C6CBDB" stroke-width="2.772" fill="#8E99A4" fill-rule="nonzero" stroke-linecap="round" stroke-linejoin="round"></path>
                    <polyline id="Shape" stroke="#C5D0D9" stroke-width="2.772" fill="#E0E5EC" fill-rule="nonzero" stroke-linecap="round" stroke-linejoin="round" points="205.432836 299 205.432836 264.151273 227.641791 264.151273 227.641791 299"></polyline>
                    <path d="M194.328358,265.646273 L127.701493,265.646273 L127.701493,222.734236 C127.701493,161.826829 194.328358,161.826829 194.328358,222.734236 L194.328358,265.646273 Z" id="Shape" stroke="#C5D0D9" stroke-width="2.772" fill="#D3D7E6" fill-rule="nonzero" stroke-linecap="round" stroke-linejoin="round"></path>
                    <polygon id="Shape" stroke="#C5D0D9" stroke-width="2.772" fill="#F4F6F8" fill-rule="nonzero" stroke-linecap="round" stroke-linejoin="round" points="205.432836 254.703704 116.597015 254.703704 116.597015 205.458681 205.432836 204.87037"></polygon>
                    <path d="M139.527761,227.606829 L122.871045,244.21794" id="Shape" stroke="#C5D0D9" stroke-width="2.772" fill="#F4F6F8" fill-rule="nonzero" stroke-linecap="round" stroke-linejoin="round"></path>
                    <path d="M183.945672,227.606829 L200.602388,244.21794" id="Shape" stroke="#C5D0D9" stroke-width="2.772" fill="#F4F6F8" fill-rule="nonzero" stroke-linecap="round" stroke-linejoin="round"></path>
                    <path d="M116.597015,204.87037 L159.210448,236.230764 C161.118979,237.672806 163.756394,237.672806 165.664925,236.230764 L205.432836,204.87037 L116.597015,204.87037 Z" id="Shape" stroke="#C5D0D9" stroke-width="2.772" fill="#F4F6F8" fill-rule="nonzero" stroke-linecap="round" stroke-linejoin="round"></path>
                    <path d="M155.462687,177.766574 C170.078955,180.784259 183.223881,195.810394 183.223881,222.865741 L183.223881,265.777778 L194.328358,265.777778 L194.328358,222.865741 C194.328358,189.013681 173.750373,173.987546 155.462687,177.766574 Z" id="Shape" fill="#F2F2F7" fill-rule="nonzero" opacity="0.25" style="mix-blend-mode: multiply;"></path>
                    <path d="M244.208284,177.185185 L158.238806,177.185185 C178.095,178.479468 194.328358,193.796296 194.328358,222.928032 L194.328358,265.902361 L283.164179,265.902361 L283.164179,222.941875 C283.164179,193.796296 264.057537,178.49331 244.208284,177.185185 Z" id="Shape" stroke="#C5D0D9" stroke-width="2.772" fill="#E8EAF1" fill-rule="nonzero" stroke-linecap="round" stroke-linejoin="round"></path>
                    <polygon id="Shape" stroke="#F4F5F8" stroke-width="2.772" fill="#F4F5F8" fill-rule="nonzero" opacity="0.37" style="mix-blend-mode: multiply;" stroke-linecap="round" stroke-linejoin="round" points="227.641791 287.925926 205.432836 265.777778 227.641791 265.777778"></polygon>
                    <path d="M365.920299,243.165903 L372,243.165903" id="Shape" stroke="#C6CBDB" stroke-width="2.772" fill="#8E99A4" fill-rule="nonzero" stroke-linecap="round" stroke-linejoin="round"></path>
                    <path d="M22.2089552,243.165903 L11.833209,243.165903" id="Shape" stroke="#C6CBDB" stroke-width="2.772" fill="#8E99A4" fill-rule="nonzero" stroke-linecap="round" stroke-linejoin="round"></path>
                    <path d="M5.55223881,243.165903 L0,243.165903" id="Shape" stroke="#C6CBDB" stroke-width="2.772" fill="#8E99A4" fill-rule="nonzero" stroke-linecap="round" stroke-linejoin="round"></path>
                    <g id="Group" opacity="0.6" transform="translate(110.350746, 0.000000)" fill-rule="nonzero">
                        <rect id="Rectangle-path" fill="#DAE2EC" x="11.7915672" y="3.83439815" width="16.6567164" height="38.7592593"></rect>
                        <rect id="Rectangle-path" fill="#E1E7ED" x="11.7915672" y="3.83439815" width="16.6567164" height="5.53703704"></rect>
                        <polygon id="Shape" fill="#F4F6F8" points="0.687089552 99.6666667 0.687089552 55.5987731 39.5527612 0 83.8665672 54.94125 83.8665672 99.6666667"></polygon>
                        <polygon id="Shape" fill="#DAE2EC" points="83.9706716 55.3703704 161.702015 55.3703704 117.284104 0 39.5527612 0"></polygon>
                        <rect id="Rectangle-path" fill="#E1E7ED" x="83.8665672" y="55.3703704" width="77.8423881" height="44.2962963"></rect>
                        <rect id="Rectangle-path" fill="#DAE2EC" x="133.940821" y="70.2788426" width="16.6567164" height="27.6851852"></rect>
                        <ellipse id="Oval" fill="#D3D7E6" cx="147.821418" cy="84.1214352" rx="1.3880597" ry="1.38425926"></ellipse>
                    </g>
                    <g id="Group" opacity="0.26" transform="translate(120.761194, 112.125000)" fill="#8E99A4" fill-rule="nonzero" stroke="#D3D7E6" stroke-linecap="round" stroke-linejoin="round" stroke-width="2.772">
                        <path d="M0,0.37375 L0,40.8356481" id="Shape"></path>
                    </g>
                    <g id="Group" opacity="0.26" transform="translate(238.746269, 116.277778)" fill="#8E99A4" fill-rule="nonzero" stroke="#D3D7E6" stroke-linecap="round" stroke-linejoin="round" stroke-width="2.772">
                        <path d="M0,22.1481481 L0,27.6851852" id="Shape"></path>
                        <path d="M0,0 L0,16.6111111" id="Shape"></path>
                    </g>
                    <g id="Group" opacity="0.26" transform="translate(183.223881, 127.351852)" fill="#8E99A4" fill-rule="nonzero" stroke="#D3D7E6" stroke-linecap="round" stroke-linejoin="round" stroke-width="2.772">
                        <path d="M0,16.6111111 L0,22.1481481" id="Shape"></path>
                        <path d="M0,0 L0,11.0740741" id="Shape"></path>
                    </g>
                    <path d="M282.241119,265.777778 C282.574254,252.142824 294.268657,188.259259 251.363731,177.247477 C251.134701,177.136736 251.009776,177.095208 251.009776,177.095208 L227.641791,177.095208 C261.607612,177.095208 283.164179,215.951366 272.059701,265.784699" id="Shape" fill="#F9F9FC" fill-rule="nonzero" opacity="0.76" style="mix-blend-mode: multiply;"></path>
                    <path d="M243.118657,213.923426 C246.246992,216.02757 247.596345,219.945779 246.424465,223.522733 C245.252585,227.099687 241.843791,229.467559 238.073183,229.323835 C234.302575,229.180111 231.084965,226.559662 230.190289,222.903937 C229.295612,219.248212 230.940932,215.444151 234.221194,213.584282" id="Shape" stroke="#C5D0D9" stroke-width="2.772" stroke-linecap="round" stroke-linejoin="round"></path>
                    <path d="M238.399254,222.291273 L238.399254,155.466157" id="Shape" stroke="#C5D0D9" stroke-width="2.772" stroke-linecap="round" stroke-linejoin="round"></path>
                    <rect id="Rectangle-path" stroke="#CFD4DC" stroke-width="2.772" fill="#E1E7ED" fill-rule="nonzero" stroke-linecap="round" stroke-linejoin="round" x="238.399254" y="155.466157" width="33.223209" height="14.9153935"></rect>
                    <path d="M111.488955,160.795556 C111.488955,176.209282 83.5056716,232.555556 83.5056716,232.555556 C83.5056716,232.555556 55.5223881,176.209282 55.5223881,160.795556 C55.5223884,145.383129 68.0509311,132.888889 83.5056716,132.888889 C98.9604122,132.888889 111.488955,145.383129 111.488955,160.795556 Z" id="Shape" stroke="#FFC729" stroke-width="4.851" fill="#FDD760" fill-rule="nonzero"></path>
                    <path d="M90.5639552,135.380556 C88.9121642,135.062176 85.5738806,134.342361 83.8249254,134.342361 C76.7435201,134.308975 69.9428747,137.101484 64.938117,142.097739 C59.9333594,147.093995 57.1402675,153.878925 57.1811194,160.940903 C57.1811194,175.773241 83.5056716,229.364838 83.5056716,229.364838 C83.5056716,229.364838 85.6849254,224.962894 88.6970149,218.546852 C80.9238806,201.977269 67.3902985,171.627384 67.3902985,160.940903 C67.3833582,147.852731 78.2102239,137.733796 90.5639552,135.380556 Z" id="Shape" fill="#FCD66D" fill-rule="nonzero" opacity="0.28" style="mix-blend-mode: screen;"></path>
                    <path d="M66.6268657,157.805556 L74.9552239,166.111111" id="Shape" stroke="#FFC729" stroke-width="2.772" stroke-linecap="round" stroke-linejoin="round"></path>
                    <path d="M74.9552239,157.805556 L66.6268657,166.111111" id="Shape" stroke="#FFC729" stroke-width="2.772" stroke-linecap="round" stroke-linejoin="round"></path>
                    <path d="M94.3880597,157.805556 L102.716418,166.111111" id="Shape" stroke="#FCC332" stroke-width="2.772" stroke-linecap="round" stroke-linejoin="round"></path>
                    <path d="M102.716418,157.805556 L94.3880597,166.111111" id="Shape" stroke="#FCC332" stroke-width="2.772" stroke-linecap="round" stroke-linejoin="round"></path>
                    <path d="M83.2835821,177.185185 L83.2835821,182.722222" id="Shape" stroke="#FCC332" stroke-width="4.851" stroke-linecap="round" stroke-linejoin="round"></path>
                    <path d="M296.468731,135.518981 C296.468731,135.45669 296.468731,135.387477 296.468731,135.325185 C296.54911,129.668445 300.835159,124.95396 306.472437,124.321503 C312.109716,123.689045 317.339007,127.335986 318.677687,132.833519 C320.958344,131.543345 323.75519,131.561232 326.019068,132.88047 C328.282945,134.199707 329.671623,136.620866 329.664179,139.235718 C329.664179,139.401829 329.664179,139.56794 329.664179,139.72713 C333.258057,141.063868 335.376334,144.775267 334.693786,148.539424 C334.011238,152.303581 330.723766,155.040126 326.88806,155.037037 L298.620224,155.037037 C293.568387,155.038291 289.325275,151.24742 288.773256,146.239582 C288.221238,141.231743 291.53726,136.612178 296.468731,135.518981 Z" id="Shape" fill="#F4F6F8" fill-rule="nonzero"></path>
                    <path d="M18.856791,190.889352 C18.856791,190.82706 18.856791,190.757847 18.856791,190.695556 C18.9371693,185.038816 23.2232183,180.324331 28.8604968,179.691873 C34.4977752,179.059416 39.7270672,182.706356 41.0657463,188.203889 C43.3464035,186.913715 46.1432501,186.931602 48.4071274,188.25084 C50.6710047,189.570077 52.0596831,191.991237 52.0522388,194.606088 C52.0522388,194.772199 52.0522388,194.93831 52.0522388,195.0975 C55.6461171,196.434238 57.764394,200.145638 57.0818459,203.909795 C56.3992977,207.673952 53.1118262,210.410496 49.2761194,210.407407 L21.0082836,210.407407 C15.9564464,210.408662 11.7133344,206.61779 11.161316,201.609952 C10.6092975,196.602114 13.9253197,191.982549 18.856791,190.889352 Z" id="Shape" fill="#F4F6F8" fill-rule="nonzero"></path>
                </g>
                <g id="Layer_3" transform="translate(55.522388, 254.703704)" fill="#F9F9FC" fill-rule="nonzero">
                    <ellipse id="Oval" cx="24.9850746" cy="5.53703704" rx="24.9850746" ry="5.53703704"></ellipse>
                </g>
            </g>
        </g>
    </g>
</svg>