<svg width="86" height="106" xmlns="http://www.w3.org/2000/svg"><defs><linearGradient x1="0%" y1="20.608%" x2="63.244%" y2="77.446%" id="a"><stop stop-color="#FFD100" stop-opacity=".431" offset="0%"/><stop stop-color="#F60" offset="100%"/></linearGradient></defs><g fill="none" fill-rule="evenodd"><path fill="url(#a)" opacity=".106" d="M51.5 0L33.744 4.387v19.747h-16.57V9.261L0 14.4l4.478 77.728L51.5 106.523l47.022-14.394L103 14.4 85.827 9.26v14.873h-16.57V4.387z" transform="translate(0 -.977)"/><path d="M58.422 69.733c0-1.784-.563-3.24-1.683-4.36-1.126-1.12-3.066-2.166-5.834-3.132-4.464-1.495-7.782-3.266-9.932-5.298-2.15-2.039-3.223-4.896-3.223-8.571 0-3.494 1.032-6.318 3.1-8.464 2.07-2.146 4.933-3.44 8.59-3.87v-6.72h4.993v6.78c3.636.537 6.438 2.02 8.399 4.454 1.967 2.441 2.95 5.74 2.95 9.912H58.24c0-2.629-.577-4.681-1.717-6.15-1.146-1.468-2.754-2.2-4.837-2.2-2.164 0-3.758.55-4.803 1.65-1.038 1.094-1.554 2.616-1.554 4.547 0 1.805.536 3.246 1.622 4.326 1.078 1.08 3.093 2.133 6.045 3.16 4.47 1.582 7.754 3.38 9.857 5.378C64.948 63.18 66 66.01 66 69.672c0 3.615-1.079 6.465-3.23 8.551-2.15 2.093-5.149 3.327-8.995 3.716v6.016h-4.953v-5.983c-3.785-.389-6.872-1.71-9.253-3.963C37.194 75.762 36 72.355 36 67.794h7.578c0 2.978.712 5.077 2.137 6.298 1.425 1.227 3.236 1.837 5.441 1.837 2.347 0 4.145-.543 5.394-1.636 1.248-1.086 1.872-2.609 1.872-4.56" fill="#FFF" opacity=".6"/></g></svg>