<?xml version="1.0" standalone="no"?>
<!DOCTYPE svg PUBLIC "-//W3C//DTD SVG 20010904//EN"
 "http://www.w3.org/TR/2001/REC-SVG-20010904/DTD/svg10.dtd">
<svg version="1.0" xmlns="http://www.w3.org/2000/svg"
 width="514.000000pt" height="432.000000pt" viewBox="0 0 514.000000 432.000000"
 preserveAspectRatio="xMidYMid meet">

<g transform="translate(0.000000,432.000000) scale(0.100000,-0.100000)"
fill="#f47320" stroke="none">
<path d="M10 4205 l0 -105 364 0 c279 0 366 -3 373 -12 6 -7 56 -170 113 -363
56 -192 129 -438 160 -545 32 -107 176 -593 319 -1080 144 -487 269 -902 278
-923 9 -21 36 -56 60 -77 85 -75 -19 -70 1490 -70 l1353 0 0 105 0 105 -1344
0 c-1181 0 -1345 2 -1356 15 -7 8 -38 99 -69 202 l-58 188 1431 5 1431 5 37
23 c46 28 100 88 116 127 6 17 41 154 76 305 36 151 128 542 206 868 152 644
159 687 120 768 -24 49 -78 107 -123 131 -30 17 -149 18 -1992 23 l-1960 5
-45 130 c-25 72 -51 140 -58 151 -20 37 -103 103 -141 114 -21 6 -189 10 -408
10 l-373 0 0 -105z m4901 -539 c10 -20 -6 -98 -90 -458 -56 -238 -147 -626
-202 -863 -55 -236 -105 -441 -112 -455 l-13 -25 -1431 -3 -1431 -2 -11 32
c-19 60 -531 1788 -531 1793 0 3 857 5 1905 5 l1905 0 11 -24z"/>
<path d="M1957 820 c-112 -29 -218 -118 -270 -227 -40 -87 -49 -210 -22 -294
54 -168 196 -278 370 -287 102 -5 170 13 252 67 139 93 209 269 172 430 -28
123 -134 248 -246 291 -65 25 -194 35 -256 20z m194 -223 c155 -82 138 -313
-26 -367 -60 -20 -139 -8 -182 26 -56 46 -75 78 -81 133 -7 72 5 117 41 158
64 73 166 93 248 50z"/>
<path d="M3985 812 c-153 -53 -250 -162 -281 -317 -19 -89 -10 -164 30 -250
117 -256 470 -316 663 -112 156 165 161 401 12 562 -109 118 -283 166 -424
117z m233 -224 c55 -37 97 -121 90 -183 -7 -62 -38 -115 -87 -150 -38 -27 -51
-30 -115 -30 -63 0 -78 4 -113 28 -56 39 -86 97 -86 166 0 82 38 141 118 185
46 25 142 17 193 -16z"/>
</g>
</svg>
