<?xml version="1.0" standalone="no"?>
<!DOCTYPE svg PUBLIC "-//W3C//DTD SVG 20010904//EN"
 "http://www.w3.org/TR/2001/REC-SVG-20010904/DTD/svg10.dtd">
<svg version="1.0" xmlns="http://www.w3.org/2000/svg"
 width="411.000000pt" height="481.000000pt" viewBox="0 0 411.000000 481.000000"
 preserveAspectRatio="xMidYMid meet">

<g transform="translate(0.000000,481.000000) scale(0.100000,-0.100000)"
fill="#f47320" stroke="none">
<path d="M1950 4800 c-446 -57 -815 -492 -984 -1160 l-24 -95 -313 -5 c-173
-3 -315 -7 -316 -8 -2 -1 -9 -12 -18 -25 -17 -26 -13 7 -90 -932 -30 -374 -66
-815 -80 -980 -68 -818 -125 -1513 -125 -1524 0 -6 11 -23 25 -36 l24 -25
1995 0 c1441 0 2002 3 2019 11 38 17 45 44 36 149 -13 147 -56 676 -89 1085
-16 204 -37 449 -45 545 -8 96 -29 344 -45 550 -70 859 -91 1106 -96 1132 -12
57 -19 58 -365 58 l-316 0 -13 63 c-43 208 -178 532 -300 716 -76 115 -238
281 -337 345 -168 108 -369 158 -543 136z m266 -169 c141 -44 235 -104 356
-229 145 -149 252 -331 340 -582 27 -78 78 -255 78 -272 0 -5 -427 -8 -949 -8
l-950 0 31 113 c169 633 544 1027 954 1001 44 -2 107 -13 140 -23z m-1310
-1278 c-15 -95 -35 -288 -41 -387 -4 -72 -11 -114 -20 -123 -43 -43 -37 -139
13 -188 64 -64 147 -60 212 10 21 22 25 36 25 88 0 68 -19 106 -64 127 -23 10
-23 13 -17 103 7 96 32 319 42 375 l6 32 979 0 c775 0 981 -3 984 -12 10 -29
36 -262 42 -376 6 -115 5 -124 -14 -137 -10 -7 -27 -32 -37 -54 -56 -124 86
-251 202 -181 45 28 72 76 72 131 0 37 -6 53 -33 85 -33 38 -34 42 -41 158 -7
117 -32 334 -42 369 -5 16 12 17 253 17 l258 0 68 -827 c38 -456 75 -904 82
-998 34 -410 115 -1394 115 -1399 0 -3 -853 -6 -1895 -6 l-1895 0 0 25 c0 14
20 272 45 573 25 301 65 797 90 1102 25 305 64 770 85 1033 22 263 40 482 40
488 0 5 99 9 246 9 l246 0 -6 -37z"/>
</g>
</svg>
