<?xml version="1.0" standalone="no"?>
<!DOCTYPE svg PUBLIC "-//W3C//DTD SVG 20010904//EN"
 "http://www.w3.org/TR/2001/REC-SVG-20010904/DTD/svg10.dtd">
<svg version="1.0" xmlns="http://www.w3.org/2000/svg"
 width="602.000000pt" height="565.000000pt" viewBox="0 0 602.000000 565.000000"
 preserveAspectRatio="xMidYMid meet">

<g transform="translate(0.000000,565.000000) scale(0.100000,-0.100000)"
fill="#f5f5f5" stroke="none">
<path d="M524 5639 c-251 -15 -420 -157 -503 -422 l-21 -67 0 -2325 0 -2325
25 -74 c68 -203 139 -287 315 -374 l75 -37 1811 0 c1340 0 1817 3 1835 11 13
7 56 27 94 45 140 66 253 217 286 379 17 88 20 2092 3 2088 -7 -2 -94 -84
-195 -182 l-184 -179 -5 -832 -5 -832 -29 -37 c-15 -21 -42 -46 -60 -57 -30
-18 -75 -19 -1736 -19 -1588 1 -1707 2 -1737 18 -17 9 -42 30 -55 47 l-23 30
-3 2318 c-2 2593 -9 2363 69 2413 l39 24 1705 0 c1680 0 1706 0 1745 -20 21
-11 49 -34 62 -52 l23 -33 2 -399 c2 -220 4 -401 6 -402 2 -2 91 81 198 185
l194 188 0 209 c-1 237 -11 302 -62 411 -67 144 -191 245 -363 294 -39 12
-3330 19 -3506 8z"/>
<path d="M5355 4992 c-145 -142 -506 -491 -644 -622 -15 -14 -108 -104 -206
-200 -99 -97 -299 -290 -445 -430 -146 -140 -341 -329 -435 -420 -93 -91 -228
-221 -300 -290 -295 -285 -345 -335 -343 -342 2 -4 111 -115 242 -248 235
-236 240 -240 260 -223 23 20 168 159 406 389 85 83 229 222 319 310 91 87
195 188 232 224 37 36 129 125 205 199 77 74 222 216 324 315 102 100 304 296
450 436 367 353 600 582 600 589 -1 13 -467 491 -478 491 -4 0 -88 -80 -187
-178z"/>
<path d="M767 4843 c-8 -7 -10 -1265 -2 -1285 4 -11 220 -13 1241 -12 l1235 1
42 40 c109 104 317 304 369 355 l58 58 0 419 c0 373 -2 420 -16 425 -22 8
-2919 8 -2927 -1z m2534 -403 c5 -9 8 -119 6 -255 l-2 -240 -1075 0 -1075 0 0
245 c0 241 0 245 22 255 15 8 334 11 1068 10 904 -1 1048 -3 1056 -15z"/>
<path d="M764 3007 c-2 -7 -3 -96 -2 -197 l3 -185 724 -3 c399 -1 727 1 730 5
3 5 5 95 3 201 l-3 192 -725 0 c-580 0 -726 -3 -730 -13z"/>
<path d="M2795 2453 c-10 -27 -21 -57 -25 -68 -5 -11 -25 -69 -45 -130 -20
-60 -40 -119 -45 -130 -4 -11 -18 -49 -30 -85 -12 -36 -26 -74 -30 -85 -28
-68 -60 -169 -56 -173 7 -6 117 27 131 39 5 5 18 9 30 9 11 0 33 7 49 15 15 8
35 15 43 15 8 0 29 6 46 14 18 8 118 43 222 77 105 34 194 66 200 71 9 8 -450
478 -467 478 -3 0 -14 -21 -23 -47z"/>
<path d="M760 1878 c0 -101 4 -188 8 -194 5 -8 202 -11 727 -10 l720 1 3 193
2 192 -730 0 -730 0 0 -182z"/>
<path d="M762 993 l3 -188 1468 -3 1467 -2 0 190 0 190 -1470 0 -1470 0 2
-187z"/>
</g>
</svg>
